{"title":"The Sitter 2011 BRRip XViD DTRG","uid":7139882,"size":1582152222,"categoryP":"video","categoryS":"movies","magnet":"?xt=urn:btih:bda77c0b88ede720403d2ae1f3ab501e89fa04ac&amp;dn=+The+Sitter+2011+BRRip+XViD+DTRG&amp;tr=udp%3A%2F%2Ftracker.openbittorrent.com%3A80&amp;tr=udp%3A%2F%2Fopen.demonii.com%3A1337&amp;tr=udp%3A%2F%2Ftracker.coppersurfer.tk%3A6969&amp;tr=udp%3A%2F%2Fexodus.desync.com%3A6969","seeders":1,"leechers":0,"uploader":"BLOVES","files":3,"time":1332965897,"description":"Format : AVI\nFormat/Info : Audio Video Interleave\nFile size : 1.46 GiB\nDuration : 1h 24mn\nOverall bit rate : 2 493 Kbps\nWriting application : VirtualDubMod 1.5.10.2 (build 2540/release)\nWriting library : VirtualDubMod build 2540/release\n\nVideo\nID : 0\nFormat : MPEG-4 Visual\nFormat profile : Advanced Simple@L5\nFormat settings, BVOP : 2\nFormat settings, QPel : No\nFormat settings, GMC : No warppoints\nFormat settings, Matrix : Default (H.263)\nMuxing mode : Packed bitstream\nCodec ID : XVID\nCodec ID/Hint : XviD\nDuration : 1h 24mn\nBit rate : 2 100 Kbps\nWidth : 720 pixels\nHeight : 384 pixels\nDisplay aspect ratio : 1.875\nFrame rate : 23.976 fps\nColor space : YUV\nChroma subsampling : 4:2:0\nBit depth : 8 bits\nScan type : Progressive\nCompression mode : Lossy\nBits/(Pixel*Frame) : 0.317\nStream size : 1.23 GiB (84%)\nWriting library : XviD 64\n\nAudio\nID : 1\nFormat : AC-3\nFormat/Info : Audio Coding 3\nMode extension : CM (complete main)\nCodec ID : 2000\nDuration : 1h 24mn\nBit rate mode : Constant\nBit rate : 384 Kbps\nChannel(s) : 6 channels\nChannel positions : Front: L C R, Side: L R, LFE\nSampling rate : 48.0 KHz\nBit depth : 16 bits\nCompression mode : Lossy\nStream size : 231 MiB (15%)\nAlignment : Split accross interleaves\nInterleave, duration : 42 ms (1.00 video frame)\nInterleave, preload duration : 500 ms\n\n\n\n\n\n\n &lt;a href=&quot;\nhttp://www.imdb.com/title/tt1366344/&quot; rel=&quot;nofollow&quot; target=&quot;_NEW&quot;&gt;\nhttp://www.imdb.com/title/tt1366344/&lt;/a&gt;\n\n\n\n\n\nRatings: 5.5/10 from 7,165 users Metascore: 39/100 \nReviews: 44 user | 81 critic | 29 from Metacritic.com\n\nA comedy about a college student on suspension who is coaxed into babysitting the kids next door, though he is fully unprepared for the wild night ahead of him.\n\nDirector:\nDavid Gordon Green\nWriters:\nBrian Gatewood, Alessandro Tanaka\nStars:\nJonah Hill, Ari Graynor and Sam Rockwell \n\n\n\n\n\n\n\nSource Used\n\n\n\nThe Sitter 2011 UNRATED 1080p BluRay X264-AMIABLE............Thanks\n\n\n\n\nEnjoy\n\n\n\n\n\n\n\n\n\n\n\n\n \n\n","torrent":{"xt":"urn:btih:bda77c0b88ede720403d2ae1f3ab501e89fa04ac","amp;dn":"+The+Sitter+2011+BRRip+XViD+DTRG","amp;tr":["udp%3A%2F%2Ftracker.openbittorrent.com%3A80","udp%3A%2F%2Fopen.demonii.com%3A1337","udp%3A%2F%2Ftracker.coppersurfer.tk%3A6969","udp%3A%2F%2Fexodus.desync.com%3A6969"],"infoHash":"bda77c0b88ede720403d2ae1f3ab501e89fa04ac","infoHashBuffer":{"type":"Buffer","data":[189,167,124,11,136,237,231,32,64,61,42,225,243,171,80,30,137,250,4,172]},"announce":[],"urlList":[]}}